# xmcd CD database file
#
# Track frame offsets:
#	150
#	22747
#	41872
#	58300
#	72090
#	91362
#	104632
#	115317
#	132155
#	143925
#	159855
#	174580
#
# Disc length: 2562 seconds
#
# Revision: 2
# Processed by: cddbd v1.5PL3 Copyright (c) Steve Scherf et al.
# Submitted via: CDex 1.50
#
DISCID=a60a000c
DTITLE=Nirvana - Nevermind
DYEAR=1900
DGENRE=
TTITLE0=Smells Like Teen Spirit
TTITLE1=In Bloom
TTITLE2=Come As You Are
TTITLE3=Breed
TTITLE4=Lithium
TTITLE5=Polly
TTITLE6=Territorial Pissings
TTITLE7=Drain You
TTITLE8=Lounge Act
TTITLE9=Stay Away
TTITLE10=On A Plain
TTITLE11=Something In The Way
EXTD=
EXTT0=
EXTT1=
EXTT2=
EXTT3=
EXTT4=
EXTT5=
EXTT6=
EXTT7=
EXTT8=
EXTT9=
EXTT10=
EXTT11=
PLAYORDER=
